<svg width="12" height="14" viewBox="0 0 12 14" fill="none" xmlns="http://www.w3.org/2000/svg">
<path d="M7 1H2.2C1.88174 1 1.57652 1.12643 1.35147 1.35147C1.12643 1.57652 1 1.88174 1 2.2V11.8C1 12.1183 1.12643 12.4235 1.35147 12.6485C1.57652 12.8736 1.88174 13 2.2 13H9.4C9.71826 13 10.0235 12.8736 10.2485 12.6485C10.4736 12.4235 10.6 12.1183 10.6 11.8V4.6L7 1Z" stroke="white" stroke-linecap="round" stroke-linejoin="round"/>
<path d="M7 1V4.6H10.6" stroke="white" stroke-linecap="round" stroke-linejoin="round"/>
<path d="M8.19941 7.59998H3.39941" stroke="white" stroke-linecap="round" stroke-linejoin="round"/>
<path d="M8.19941 10H3.39941" stroke="white" stroke-linecap="round" stroke-linejoin="round"/>
<path d="M4.59941 5.20001H3.99941H3.39941" stroke="white" stroke-linecap="round" stroke-linejoin="round"/>
</svg>
